<svg width="21" height="22" fill="none" xmlns="http://www.w3.org/2000/svg"><g clip-path="url(#clip0_67_692)"><path d="M10.12.575c-.978.192-1.966.944-2.496 1.893-.324.587-.427.986-.453 1.796l-.03.742H5.616c-1.348 0-1.544.01-1.698.093-.365.182-.288-.337-1.168 8.1-.767 7.389-.803 7.757-.72 7.923a.76.76 0 00.247.28c.17.104.257.104 8.773.094l8.609-.016.16-.16a.626.626 0 00.18-.364c.015-.109-.335-3.648-.772-7.856-.875-8.364-.793-7.814-1.168-8-.155-.084-.35-.094-1.678-.094h-1.508V4.73c0-.498-.103-1.199-.231-1.593C14.22 1.856 13.12.839 11.864.569c-.442-.093-1.266-.093-1.744.006zm1.45 1.266c.665.155 1.36.7 1.658 1.297.226.446.303.752.34 1.36l.035.508H8.442V4.46c0-.597.083-.929.34-1.401.288-.524.936-1.022 1.564-1.199.283-.077.926-.088 1.225-.02zM7.157 7.102c0 .784.005.804.134.96a.783.783 0 00.329.218c.175.052.226.047.448-.062.329-.166.37-.301.37-1.204l.005-.711h5.146v.783c0 .914.041 1.033.396 1.168.206.083.237.083.443 0 .38-.15.417-.254.442-1.162l.016-.789h2.336l.17 1.67c.097.924.422 4.048.72 6.943l.55 5.267-7.64.015c-4.2.006-7.652 0-7.663-.015-.026-.026 1.354-13.522 1.405-13.766l.026-.114h2.367v.799z" fill="#1E1E1E"/></g><defs><clipPath id="clip0_67_692"><path fill="#fff" transform="translate(0 .5)" d="M0 0h21v21H0z"/></clipPath></defs></svg>