<svg width="52" height="11" fill="none" xmlns="http://www.w3.org/2000/svg"><path d="M4.872.014c-1.377.213-2.36.698-3.27 1.617C.524 2.719 0 3.988 0 5.518a5.492 5.492 0 003.846 5.235 5.65 5.65 0 003.304 0C9.467 10.021 11 7.923 11 5.488 11 2.905 9.224.699 6.67.114c-.36-.082-1.5-.143-1.798-.1zm1.373 2.644c.879.225 1.68.953 2.005 1.816.559 1.477-.2 3.167-1.676 3.748a2.918 2.918 0 01-1.975.065c-.883-.277-1.602-1.005-1.901-1.915-.09-.278-.113-.425-.117-.837-.004-.576.065-.888.312-1.386.312-.633 1.104-1.292 1.784-1.474a3.055 3.055 0 011.568-.017zM30.883.029c-1.387.134-2.872.581-3.94 1.189-1.485.842-2.4 1.892-2.823 3.233-.13.417-.162 1.346-.058 1.827.441 2.105 2.611 3.859 5.565 4.484 1.526.325 3.363.316 4.858-.022.878-.195 2.085-.66 2.724-1.046 1.41-.855 2.328-1.962 2.688-3.238.144-.52.135-1.41-.018-1.961a4.472 4.472 0 00-.59-1.294C38.218 1.604 36.124.463 33.585.09c-.572-.086-2.103-.117-2.702-.06zm2.5 2.643c1.561.256 2.926.95 3.556 1.8.432.582.5 1.16.207 1.737-.18.347-.675.86-1.125 1.15-1.338.868-3.35 1.25-5.205.998-2.576-.356-4.503-1.875-4.098-3.237.108-.365.261-.6.626-.964 1.247-1.246 3.742-1.857 6.038-1.484zM13.64.077c-.292.104-.647.476-.752.785-.241.73.096 1.46.797 1.728.215.082.378.086 2.232.086 1.103 0 2.005.01 2.005.023 0 .009-1.33 1.769-2.961 3.906C12.674 9.603 12 10.519 12 10.619c0 .068.05.186.11.254l.109.127h9.689l.21-.095c.318-.15.56-.39.7-.703.11-.245.124-.322.106-.604-.037-.526-.296-.92-.757-1.147l-.26-.127-2.4-.023-2.4-.023 1.895-2.495c1.038-1.374 2.364-3.116 2.942-3.878C23.088.4 23.114.354 22.887.113L22.782 0l-4.468.005c-3.95 0-4.492.009-4.674.072zM42.121.09a.503.503 0 00-.107.191c-.012.06-.017 2.26-.012 4.89l.012 4.787.099.232a1.246 1.246 0 002.326 0c.099-.232.099-.246.12-2.623l.021-2.395.47.4c.262.217 1.686 1.415 3.165 2.658a919.067 919.067 0 012.981 2.513c.35.3.539.331.701.127l.103-.127-.009-4.904C51.98 1.125 51.974.925 51.897.77c-.158-.308-.329-.494-.59-.63a.946.946 0 00-.564-.14c-.518 0-.907.254-1.134.735l-.132.277v2.4c0 1.497-.017 2.395-.039 2.386-.038-.014-1.514-1.248-5.58-4.673C42.664.118 42.51.005 42.369 0a.336.336 0 00-.248.09z" fill="#fff"/></svg>