<svg width="19" height="11" fill="none" xmlns="http://www.w3.org/2000/svg"><path d="M7.935.006c-.009.01-.113.02-.339.035-.17.012-.259.025-.314.047a.503.503 0 01-.13.03.374.374 0 00-.129.034.266.266 0 01-.082.027.53.53 0 00-.171.071c-.005.008-.018.013-.03.015-.045.009-.247.162-.313.239-.08.093-.122.21-.093.255.009.018.053.038.097.046.398.076.709.284.838.56.072.156.146.426.156.58.006.067.018.161.027.212.038.195.049 1.408.018 1.87-.027.426-.059.634-.138.91l-.034.12a1.126 1.126 0 01-.17.258.435.435 0 01-.24.097.477.477 0 01-.149-.044c-.05-.024-.097-.04-.102-.033-.005.006-.01.002-.01-.009a.394.394 0 00-.103-.093c-.095-.067-.162-.131-.35-.335-.036-.039-.061-.071-.058-.075.006-.004-.01-.027-.032-.051a5.46 5.46 0 01-.309-.423.427.427 0 00-.086-.104c-.01 0-.01-.01-.005-.018.005-.011.001-.019-.008-.019-.01 0-.018-.005-.016-.014a.678.678 0 00-.077-.14c-.045-.072-.115-.181-.153-.245a1.372 1.372 0 00-.1-.15c-.018-.02-.029-.034-.024-.034.011 0-.07-.146-.15-.273-.07-.112-.069-.106-.19-.338a2.675 2.675 0 00-.118-.21 15.172 15.172 0 01-.359-.738 3.31 3.31 0 00-.104-.224 5.818 5.818 0 01-.156-.346.574.574 0 00-.061-.132c-.007 0-.014-.022-.016-.047a.396.396 0 00-.036-.115 2.455 2.455 0 01-.065-.139 1.745 1.745 0 00-.17-.315C3.8.644 3.649.553 3.473.5L3.308.45 1.902.457C.596.462.485.466.36.496.117.56 0 .68 0 .866c0 .114.052.305.126.458.027.057.054.122.06.144.008.024.022.042.031.042.01 0 .015.006.013.013-.006.027.025.115.041.115.01 0 .015.005.013.013-.004.02.012.058.104.257.043.093.079.178.079.193 0 .013.012.034.027.047.014.013.027.031.027.04 0 .017.052.128.29.63.04.083.078.15.085.15.007 0 .014.012.014.024 0 .04.187.414.207.414.01 0 .016.006.009.011-.013.015.113.263.135.263.009 0 .012.007.005.016-.009.015.106.25.133.275a3.415 3.415 0 00.239.44c.009.005.018.018.016.027 0 .026.212.427.262.494.023.033.038.06.03.06-.005 0-.001.013.011.028.027.033.067.104.139.246a.72.72 0 00.079.131c.014.018.066.102.113.188a.758.758 0 00.099.155c.007 0 .014.01.014.022 0 .013.057.117.127.23.072.114.13.215.13.222 0 .01.016.027.036.042.02.015.032.03.027.033-.004.005.048.095.118.199l.198.304a.41.41 0 00.09.115c.008 0 .014.005.012.013-.007.021.075.15.095.15.01 0 .014.008.01.017-.004.019.17.257.19.257.008 0 .012.006.01.013-.021.064 1.083 1.431 1.14 1.413.008-.002.013.007.013.02 0 .02.27.305.29.305.003 0 .075.065.159.146.083.078.154.14.16.136.003-.005.018.008.032.026.074.107 1.011.756 1.011.7 0-.007.01 0 .024.016.026.033.263.168.263.15 0-.008.011 0 .024.02.014.018.034.027.045.02.012-.007.021-.007.021.002 0 .007.027.027.06.04l.202.095c.081.038.162.07.18.074a.133.133 0 01.057.03c.015.012.031.018.04.012.009-.005.018-.002.022.006.001.007.114.05.247.093l.306.102c.034.013.111.035.17.047l.117.026c.102.03.544.113.745.14.21.028 1.719.033 1.778.007a.891.891 0 01.095-.038c.022-.007.04-.022.04-.03 0-.01.007-.013.014-.008.032.02.197-.078.259-.155.11-.139.142-.246.149-.527.005-.259.063-.73.107-.884a.921.921 0 00.03-.15c.003-.033.015-.063.026-.067.013-.006.027-.037.034-.07a.462.462 0 01.032-.096c.011-.02.022-.04.022-.046a.25.25 0 01.023-.05c.013-.023.018-.04.013-.04-.005 0 .004-.015.018-.034a1.4 1.4 0 00.084-.102c.063-.076.24-.217.284-.224.153-.025.198-.025.287.002a.585.585 0 00.115.027.03.03 0 01.027.017c.006.009.072.058.148.11.075.052.176.134.222.181a.473.473 0 00.097.082c.007 0 .022.01.034.024.013.015.02.026.015.026-.006 0 .009.018.03.042.18.191.282.306.435.486.097.115.219.256.27.31l.225.246c.2.221.248.27.419.418.152.133.386.303.415.303.008 0 .028.01.043.025.036.033.309.148.477.199.124.04.14.04 1.598.04.81 0 1.514-.005 1.563-.011.113-.015.318-.07.341-.091a.07.07 0 01.043-.017.628.628 0 00.388-.335c.04-.093.036-.328-.007-.452-.052-.155-.225-.47-.259-.47-.01 0-.014-.006-.007-.012.005-.005-.004-.032-.02-.06a4.436 4.436 0 00-.36-.486 2.688 2.688 0 00-.27-.334 3.148 3.148 0 01-.15-.166c-.134-.155-.75-.78-.75-.76 0 .007-.016-.002-.036-.019-.02-.018-.035-.041-.035-.052 0-.011-.1-.112-.221-.221-.234-.213-.74-.717-.719-.717.006 0-.003-.018-.023-.041a.838.838 0 01-.127-.201c-.013-.027-.03-.05-.037-.05-.008 0-.017-.021-.02-.047a.164.164 0 00-.015-.065c-.047-.079-.006-.356.082-.544a.449.449 0 00.042-.114c-.002-.008.003-.013.01-.013.015 0 .054-.071.05-.091a2.931 2.931 0 00.207-.283c.068-.1.133-.193.144-.208.012-.013.07-.091.13-.173.062-.08.166-.219.23-.306.067-.086.116-.163.108-.168-.005-.006-.001-.011.01-.011.008 0 .055-.05.102-.11.047-.06.079-.109.072-.109-.008 0-.002-.01.012-.024.047-.038.367-.463.663-.882.233-.33.271-.385.273-.401a.113.113 0 01.025-.038 5.533 5.533 0 00.388-.597c.124-.206.346-.641.359-.701.003-.015.01-.031.018-.037a.743.743 0 00.05-.11c.113-.296.142-.594.068-.723-.035-.062-.114-.142-.14-.142a.473.473 0 01-.072-.039.506.506 0 00-.233-.07L18.358.47c-.061-.013-.656-.016-1.76-.013-1.634.006-1.668.006-1.762.044-.154.06-.265.193-.352.425-.04.11-.09.228-.147.359a.268.268 0 00-.025.082c0 .013-.01.04-.025.06a.379.379 0 00-.038.082c-.007.026-.063.151-.12.283L14 2.075a.761.761 0 01-.048.091 1.171 1.171 0 00-.072.155 2.97 2.97 0 01-.099.22c-.226.435-.285.548-.332.625l-.16.27a6.98 6.98 0 01-.208.335 1.57 1.57 0 00-.104.17.26.26 0 01-.043.063c-.024.024-.036.051-.03.06.005.01.001.017-.01.017a.345.345 0 00-.077.096c-.25.4-.727.947-.964 1.104-.216.14-.352.125-.512-.057a.513.513 0 01-.1-.14.132.132 0 00-.026-.064.37.37 0 01-.037-.097c-.006-.03-.02-.058-.03-.058-.01 0-.014-.007-.008-.017.005-.007.002-.042-.01-.076-.046-.159-.051-.514-.028-1.822.014-.82.02-1.02.04-1.449a3.902 3.902 0 00-.035-.675c-.027-.242-.184-.497-.37-.592a1.001 1.001 0 00-.31-.111 3.267 3.267 0 01-.212-.046.44.44 0 00-.136-.02c-.006.007-.024.004-.042-.005a.962.962 0 00-.2-.03c-.193-.016-1.89-.03-1.903-.016z" fill="#fff"/></svg>