<svg width="21" height="11" fill="none" xmlns="http://www.w3.org/2000/svg"><path d="M8.927.006c-.01.01-.114.02-.343.034a1.233 1.233 0 00-.318.048.515.515 0 01-.13.029.383.383 0 00-.132.034.272.272 0 01-.083.027.54.54 0 00-.173.071c-.005.008-.018.013-.03.015-.046.009-.25.161-.316.238-.082.092-.124.209-.095.254.01.018.055.038.098.045.403.077.718.284.848.558.073.156.147.425.158.577.006.068.018.162.027.213.039.194.05 1.402.019 1.861-.028.425-.06.632-.14.908l-.035.118a1.12 1.12 0 01-.172.258.443.443 0 01-.242.096.488.488 0 01-.15-.043c-.051-.024-.098-.04-.104-.033-.005.005-.01.002-.01-.01 0-.01-.048-.05-.104-.092-.097-.067-.164-.13-.354-.334-.037-.038-.062-.07-.059-.074.006-.004-.01-.028-.032-.051a5.442 5.442 0 01-.313-.421.427.427 0 00-.087-.104c-.009 0-.01-.009-.005-.018.005-.011.002-.018-.007-.018-.011 0-.019-.006-.017-.015a.671.671 0 00-.078-.14c-.045-.07-.116-.18-.154-.243a1.365 1.365 0 00-.102-.149c-.018-.02-.029-.034-.024-.034.011 0-.07-.146-.152-.273-.07-.11-.07-.105-.193-.336-.047-.09-.1-.183-.118-.209a15.888 15.888 0 01-.363-.735c0-.005-.047-.107-.105-.223a5.749 5.749 0 01-.158-.345.568.568 0 00-.062-.131c-.007 0-.014-.022-.016-.047a.39.39 0 00-.037-.115A2.437 2.437 0 015 1.06a1.73 1.73 0 00-.172-.314.85.85 0 00-.414-.248L4.247.45 2.825.455c-1.32.005-1.432.009-1.558.04C1.02.557.902.675.902.862c0 .113.053.303.127.456.028.056.055.122.062.143.007.024.022.042.031.042.01 0 .015.006.013.013-.006.027.025.114.042.114.009 0 .014.006.012.013-.003.02.013.058.106.256.043.093.08.178.08.192 0 .013.012.035.027.048.014.012.027.03.027.04 0 .016.053.127.294.626.04.084.078.15.085.15.008 0 .015.012.015.024 0 .04.189.413.209.413.01 0 .016.005.009.01-.013.015.114.262.136.262.01 0 .013.007.006.016-.01.015.107.25.134.275a3.385 3.385 0 00.242.438c.009.005.018.017.016.027 0 .025.214.424.265.492.024.032.038.06.03.06-.005 0-.001.012.012.027.027.032.067.103.14.245a.715.715 0 00.08.13c.014.019.067.102.114.188a.754.754 0 00.1.154c.007 0 .014.011.014.022 0 .013.058.116.13.229.072.114.13.214.13.221 0 .01.016.027.036.042.02.015.033.03.027.033a1.17 1.17 0 00.12.198l.2.303a.41.41 0 00.09.114c.01 0 .015.006.014.013-.008.022.076.15.096.15.009 0 .014.008.01.017a1.11 1.11 0 00.191.256c.01 0 .013.006.011.013-.021.063 1.095 1.425 1.153 1.407.008-.002.013.007.013.02 0 .02.273.303.293.303.003 0 .076.066.161.146.084.078.156.14.162.136.003-.006.018.007.032.025.075.107 1.023.754 1.023.698 0-.008.01 0 .023.016.028.033.267.167.267.149 0-.007.011 0 .024.02.015.018.034.027.045.02.013-.007.022-.007.022.002 0 .007.027.027.06.04.031.014.124.058.205.094.082.038.164.07.182.075a.134.134 0 01.058.029c.015.012.03.018.04.012.009-.005.018-.002.022.006.002.007.116.05.25.092l.309.102c.035.013.113.034.173.047l.118.026c.103.03.55.112.753.14.213.027 1.738.032 1.798.007.02-.01.04-.018.045-.02a.33.33 0 01.051-.018c.022-.008.04-.022.04-.031 0-.01.007-.013.015-.008.032.02.2-.078.261-.154.113-.138.144-.245.15-.525.006-.258.065-.726.11-.88a.922.922 0 00.03-.15c.003-.032.015-.063.026-.067.013-.005.027-.036.035-.069a.452.452 0 01.032-.096.236.236 0 00.022-.045c0-.006.011-.027.024-.051.012-.022.018-.04.012-.04-.005 0 .004-.014.019-.033.016-.016.054-.061.085-.101.063-.077.242-.216.287-.224.154-.025.2-.025.29.002a.59.59 0 00.117.027c.009 0 .021.006.027.017.005.009.073.058.149.11.076.051.178.133.225.18a.476.476 0 00.098.082c.007 0 .022.01.035.024.012.014.02.025.014.025-.005 0 .01.018.031.042.182.19.285.305.44.485.098.114.221.254.272.308.053.055.154.166.229.245.201.22.25.27.423.416.154.133.39.302.42.302.008 0 .028.01.043.025.036.033.312.147.483.198.125.04.142.04 1.616.04.819 0 1.53-.005 1.58-.01.114-.015.321-.07.345-.092a.07.07 0 01.043-.016.629.629 0 00.392-.334c.04-.093.037-.327-.007-.45-.052-.155-.226-.469-.261-.469-.01 0-.014-.005-.007-.01.005-.006-.004-.034-.02-.06a4.4 4.4 0 00-.365-.486c.002-.016-.187-.245-.273-.332a3.145 3.145 0 01-.152-.165c-.135-.155-.757-.777-.757-.757 0 .007-.017-.002-.037-.019-.02-.018-.036-.041-.036-.052 0-.011-.1-.111-.223-.22-.237-.212-.749-.714-.727-.714.006 0-.003-.018-.023-.041a.834.834 0 01-.13-.2c-.012-.027-.028-.05-.036-.05-.009 0-.018-.021-.02-.046a.162.162 0 00-.016-.066c-.047-.078-.005-.354.084-.54a.444.444 0 00.041-.115c-.002-.008.004-.013.011-.013.015 0 .055-.07.051-.09 0-.006.018-.03.042-.055.023-.026.1-.127.167-.227l.145-.207c.013-.013.071-.091.133-.173l.232-.305a.664.664 0 00.11-.167c-.006-.005-.003-.01.008-.01.01 0 .056-.05.104-.11.047-.06.08-.109.072-.109-.007 0-.002-.01.013-.023.047-.039.37-.462.67-.88.236-.328.274-.382.276-.399a.113.113 0 01.026-.038 5.512 5.512 0 00.392-.594c.125-.205.35-.639.363-.699.004-.014.01-.03.018-.036a.74.74 0 00.051-.11c.114-.295.143-.591.069-.72-.036-.062-.116-.142-.142-.142a.48.48 0 01-.072-.038.518.518 0 00-.236-.07l-.158-.028c-.062-.013-.663-.016-1.78-.013C16.035.462 16 .462 15.906.5c-.157.06-.27.192-.356.423a6.77 6.77 0 01-.15.358.265.265 0 00-.025.081c0 .013-.01.04-.025.06a.373.373 0 00-.038.082c-.007.026-.064.15-.122.282l-.129.281a.747.747 0 01-.049.09 1.161 1.161 0 00-.072.155 2.97 2.97 0 01-.1.218c-.23.434-.29.547-.336.623-.03.047-.102.169-.162.269-.06.101-.154.252-.21.334-.057.083-.104.16-.106.169a.26.26 0 01-.043.063c-.024.024-.037.051-.031.06.005.01.002.017-.01.017a.361.361 0 00-.078.096c-.252.398-.735.942-.975 1.098-.218.14-.356.126-.517-.056a.511.511 0 01-.102-.14.13.13 0 00-.025-.063.365.365 0 01-.038-.096c-.006-.031-.02-.059-.03-.059-.01 0-.014-.007-.009-.016.006-.007.002-.042-.009-.076-.047-.158-.052-.512-.029-1.814a41.2 41.2 0 01.04-1.444c.01-.205.002-.336-.034-.672-.027-.241-.187-.496-.374-.59a1.022 1.022 0 00-.315-.11 3.359 3.359 0 01-.214-.046.452.452 0 00-.138-.02c-.005.007-.023.003-.042-.006a.984.984 0 00-.201-.029C10.656.006 8.94-.008 8.927.006z" fill="#1E1E1E"/></svg>